<svg xmlns="http://www.w3.org/2000/svg" width="1000" height="760" viewBox="0 0 1000 760" stroke-linecap="round" stroke-linejoin="round"><g opacity="0.2"><g transform="translate(250 60) rotate(0) scale(1)"><path d="M0 200V30M16 200V30" stroke="#d99a1e" stroke-width="1.6" fill="none" /><path d="M0 200 L16 183 L0 166 L16 149 L0 132 L16 115 L0 98 L16 81 L0 64 L16 47 L0 30" stroke="#d99a1e" stroke-width="1" fill="none" /><path d="M-150 30H90M-150 22H0" stroke="#d99a1e" stroke-width="1.6" fill="none" /><path d="M-150 30L-140 22L-130 30M-130 30L-120 22L-110 30M-110 30L-100 22L-90 30M-90 30L-80 22L-70 30M-70 30L-60 22L-50 30M-50 30L-40 22L-30 30M-30 30L-20 22L-10 30" stroke="#d99a1e" stroke-width="0.9" fill="none" /><path d="M8 22V0M8 0L-130 22M8 0L80 30" stroke="#5f5c57" stroke-width="1" fill="none" /><rect x="60" y="30" width="28" height="16" rx="0" stroke="#4f585e" fill="#b9b4a9" stroke-width="1.3"/><path d="M-100 30V90" stroke="#4f585e" stroke-width="0.9" fill="none" /><path d="M-110 90h20l-4 14h-12z" stroke="#4f585e" stroke-width="1.1" fill="#b9b4a9" /><path d="M-20 200H40" stroke="#8a7f70" stroke-width="1.4" fill="none" /></g><g transform="translate(560 120) rotate(0) scale(1)"><rect x="-5" y="0" width="10" height="180" rx="0" stroke="#6f6a60" fill="#b9b4a9" stroke-width="1"/><rect x="55" y="0" width="10" height="180" rx="0" stroke="#6f6a60" fill="#b9b4a9" stroke-width="1"/><rect x="115" y="0" width="10" height="180" rx="0" stroke="#6f6a60" fill="#b9b4a9" stroke-width="1"/><rect x="175" y="0" width="10" height="180" rx="0" stroke="#6f6a60" fill="#b9b4a9" stroke-width="1"/><rect x="-10" y="40" width="200" height="8" rx="0" stroke="#6f6a60" fill="#b9b4a9" stroke-width="1"/><rect x="-10" y="95" width="200" height="8" rx="0" stroke="#6f6a60" fill="#b9b4a9" stroke-width="1"/><rect x="-10" y="150" width="200" height="8" rx="0" stroke="#6f6a60" fill="#b9b4a9" stroke-width="1"/><path d="M-2 0V-18M2 0V-16" stroke="#7a4a2e" stroke-width="1.1" fill="none" /><path d="M58 0V-18M62 0V-16" stroke="#7a4a2e" stroke-width="1.1" fill="none" /><path d="M118 0V-18M122 0V-16" stroke="#7a4a2e" stroke-width="1.1" fill="none" /><path d="M178 0V-18M182 0V-16" stroke="#7a4a2e" stroke-width="1.1" fill="none" /><path d="M8 147L52 102M8 102L52 147" stroke="#8a5a0b" stroke-width="0.9" fill="none" stroke-dasharray="3 3"/><path d="M-20 180H200" stroke="#8a7f70" stroke-width="1.4" fill="none" /></g><g transform="translate(40 330) rotate(0) scale(1)"><rect x="0" y="60" width="320" height="7" rx="0" stroke="#6f6a60" fill="#b9b4a9" stroke-width="1"/><path d="M10 130Q160 10 310 130" stroke="#6f6a60" stroke-width="2.2" fill="none" /><path d="M31.4 67V114.1" stroke="#6f6a60" stroke-width="1" fill="none" /><path d="M52.9 67V100.6" stroke="#6f6a60" stroke-width="1" fill="none" /><path d="M74.3 67V89.6" stroke="#6f6a60" stroke-width="1" fill="none" /><path d="M95.7 67V81.0" stroke="#6f6a60" stroke-width="1" fill="none" /><path d="M117.1 67V74.9" stroke="#6f6a60" stroke-width="1" fill="none" /><path d="M138.6 67V71.2" stroke="#6f6a60" stroke-width="1" fill="none" /><path d="M160.0 67V70.0" stroke="#6f6a60" stroke-width="1" fill="none" /><path d="M181.4 67V71.2" stroke="#6f6a60" stroke-width="1" fill="none" /><path d="M202.9 67V74.9" stroke="#6f6a60" stroke-width="1" fill="none" /><path d="M224.3 67V81.0" stroke="#6f6a60" stroke-width="1" fill="none" /><path d="M245.7 67V89.6" stroke="#6f6a60" stroke-width="1" fill="none" /><path d="M267.1 67V100.6" stroke="#6f6a60" stroke-width="1" fill="none" /><path d="M288.6 67V114.1" stroke="#6f6a60" stroke-width="1" fill="none" /><rect x="4" y="67" width="12" height="63" rx="0" stroke="#6f6a60" fill="#b9b4a9" stroke-width="1"/><rect x="304" y="67" width="12" height="63" rx="0" stroke="#6f6a60" fill="#b9b4a9" stroke-width="1"/><path d="M-10 130H330" stroke="#8a7f70" stroke-width="1.4" fill="none" /><path d="M20 142c15-6 30 6 45 0s30-6 45 0s30 6 45 0s30-6 45 0" stroke="#2e86ab" stroke-width="1.3" fill="none" /><path d="M60 152c15-6 30 6 45 0s30-6 45 0s30 6 45 0" stroke="#2e86ab" stroke-width="1" fill="none" /></g><g transform="translate(560 440) rotate(0) scale(1)"><rect x="0" y="32" width="150" height="18" rx="0" stroke="#3c3f42" fill="#5f5c57" stroke-width="1"/><path d="M150 50h40V20l-12-14h-28z" stroke="#8c2a1e" stroke-width="1.2" fill="#c0392b" /><path d="M162 8h14l8 12h-22z" stroke="#2b3338" stroke-width="0.8" fill="#bfd7e3" /><ellipse cx="60" cy="12" rx="58" ry="24" transform="rotate(-12 60 12)" fill="#ece8df" stroke="#6f6a60" stroke-width="1.2"/><path d="M18 0l80 22M12 16l86 10M30 -6l62 36" stroke="#e07b24" stroke-width="2" fill="none" /><path d="M-10 22l18-8M-14 30l10 2" stroke="#5f5c57" stroke-width="1.2" fill="none" /><circle cx="30" cy="56" r="10" stroke="#222" fill="#3a3a3a" stroke-width="1.2"/><circle cx="30" cy="56" r="3" stroke="#999" fill="#bbb" stroke-width="1.2"/><circle cx="80" cy="56" r="10" stroke="#222" fill="#3a3a3a" stroke-width="1.2"/><circle cx="80" cy="56" r="3" stroke="#999" fill="#bbb" stroke-width="1.2"/><circle cx="170" cy="56" r="10" stroke="#222" fill="#3a3a3a" stroke-width="1.2"/><circle cx="170" cy="56" r="3" stroke="#999" fill="#bbb" stroke-width="1.2"/></g><g transform="translate(70 580) rotate(0) scale(1)"><path d="M0 100l20-100h34l20 100z" stroke="#4f585e" stroke-width="1.3" fill="#d7dadc" /><path d="M8 0h58" stroke="#4f585e" stroke-width="1.2" fill="none" /><path d="M100 100c3-36 16-50 42-50s46 10 50 50z" stroke="#6f6a60" stroke-width="1.2" fill="#b9b4a9" /><g transform="translate(122 70) rotate(0) scale(1)"><ellipse cx="19.0" cy="11.2" rx="12.3" ry="8.5" transform="rotate(154 19.0 11.2)" fill="#5f5c57" stroke="#4a463f" stroke-width="0.8"/><ellipse cx="8.0" cy="16.1" rx="8.3" ry="6.1" transform="rotate(17 8.0 16.1)" fill="#8d8173" stroke="#4a463f" stroke-width="0.8"/><ellipse cx="12.7" cy="1.8" rx="11.3" ry="8.6" transform="rotate(107 12.7 1.8)" fill="#6b7078" stroke="#4a463f" stroke-width="0.8"/><ellipse cx="16.6" cy="9.1" rx="10.7" ry="7.9" transform="rotate(3 16.6 9.1)" fill="#5f5c57" stroke="#4a463f" stroke-width="0.8"/><ellipse cx="22.2" cy="1.2" rx="5.7" ry="3.6" transform="rotate(140 22.2 1.2)" fill="#6b7078" stroke="#4a463f" stroke-width="0.8"/></g><path d="M140 50V10M132 10h16" stroke="#4f585e" stroke-width="1.2" fill="none" /><path d="M-10 100H210" stroke="#8a7f70" stroke-width="1.4" fill="none" /><path d="M208 50v50M204 50h8M204 100h8" stroke="#7c1d2f" stroke-width="0.9" fill="none" /><text x="214" y="80" font-size="11" font-family="monospace" fill="#7c1d2f">slump</text></g><g transform="translate(830 300) rotate(0) scale(1)"><path d="M0 40l50-18l50 18l-50 18z" stroke="#6f6a60" stroke-width="1.2" fill="#cfcac0" /><path d="M0 40v60l50 18V58z" stroke="#6f6a60" stroke-width="1.2" fill="#b9b4a9" /><path d="M100 40v60l-50 18V58z" stroke="#6f6a60" stroke-width="1.2" fill="#a39e93" /><path d="M0 128h100M0 124v8M100 124v8" stroke="#7c1d2f" stroke-width="0.8" fill="none" stroke-dasharray="4 2"/><text x="36" y="144" font-size="11" font-family="monospace" fill="#7c1d2f">150</text></g><g transform="translate(420 300) rotate(0) scale(1)"><rect x="0" y="0" width="90" height="140" rx="0" stroke="#6f6a60" fill="#b9b4a9" stroke-width="1.2"/><rect x="10" y="10" width="70" height="120" rx="4" stroke="#7a4a2e" fill="none" stroke-width="1"/><circle cx="20" cy="20" r="4" stroke="#4a2c1c" fill="#7a4a2e" stroke-width="1.2"/><circle cx="70" cy="20" r="4" stroke="#4a2c1c" fill="#7a4a2e" stroke-width="1.2"/><circle cx="20" cy="120" r="6" stroke="#4a2c1c" fill="#7a4a2e" stroke-width="1.2"/><circle cx="45" cy="120" r="6" stroke="#4a2c1c" fill="#7a4a2e" stroke-width="1.2"/><circle cx="70" cy="120" r="6" stroke="#4a2c1c" fill="#7a4a2e" stroke-width="1.2"/><path d="M-14 0v140M-18 0h8M-18 140h8" stroke="#7c1d2f" stroke-width="0.8" fill="none" /><path d="M0 156h90M0 152v8M90 152v8" stroke="#7c1d2f" stroke-width="0.8" fill="none" /></g><g transform="translate(760 610) rotate(-8) scale(1)"><path d="M0 0H240" stroke="#7a4a2e" stroke-width="3" fill="none" /><path d="M0 14H240" stroke="#7a4a2e" stroke-width="3" fill="none" /><path d="M0 -6l6 26" stroke="#5a3520" stroke-width="0.9" fill="none" /><path d="M12 -6l6 26" stroke="#5a3520" stroke-width="0.9" fill="none" /><path d="M24 -6l6 26" stroke="#5a3520" stroke-width="0.9" fill="none" /><path d="M36 -6l6 26" stroke="#5a3520" stroke-width="0.9" fill="none" /><path d="M48 -6l6 26" stroke="#5a3520" stroke-width="0.9" fill="none" /><path d="M60 -6l6 26" stroke="#5a3520" stroke-width="0.9" fill="none" /><path d="M72 -6l6 26" stroke="#5a3520" stroke-width="0.9" fill="none" /><path d="M84 -6l6 26" stroke="#5a3520" stroke-width="0.9" fill="none" /><path d="M96 -6l6 26" stroke="#5a3520" stroke-width="0.9" fill="none" /><path d="M108 -6l6 26" stroke="#5a3520" stroke-width="0.9" fill="none" /><path d="M120 -6l6 26" stroke="#5a3520" stroke-width="0.9" fill="none" /><path d="M132 -6l6 26" stroke="#5a3520" stroke-width="0.9" fill="none" /><path d="M144 -6l6 26" stroke="#5a3520" stroke-width="0.9" fill="none" /><path d="M156 -6l6 26" stroke="#5a3520" stroke-width="0.9" fill="none" /><path d="M168 -6l6 26" stroke="#5a3520" stroke-width="0.9" fill="none" /><path d="M180 -6l6 26" stroke="#5a3520" stroke-width="0.9" fill="none" /><path d="M192 -6l6 26" stroke="#5a3520" stroke-width="0.9" fill="none" /><path d="M204 -6l6 26" stroke="#5a3520" stroke-width="0.9" fill="none" /><path d="M216 -6l6 26" stroke="#5a3520" stroke-width="0.9" fill="none" /><path d="M228 -6l6 26" stroke="#5a3520" stroke-width="0.9" fill="none" /></g><g transform="translate(800 36) rotate(0) scale(0.8)"><path d="M0 0V120H200" stroke="#4f585e" stroke-width="1" fill="none" /><path d="M0 110C40 105 60 70 100 45S170 8 200 4" stroke="#7c1d2f" stroke-width="1.6" fill="none" /><path d="M0 116C50 112 70 90 110 60S175 20 200 12" stroke="#c4954a" stroke-width="1.3" fill="none" stroke-dasharray="4 3"/><path d="M0 120v4" stroke="#4f585e" stroke-width="0.8" fill="none" /><path d="M25 120v4" stroke="#4f585e" stroke-width="0.8" fill="none" /><path d="M50 120v4" stroke="#4f585e" stroke-width="0.8" fill="none" /><path d="M75 120v4" stroke="#4f585e" stroke-width="0.8" fill="none" /><path d="M100 120v4" stroke="#4f585e" stroke-width="0.8" fill="none" /><path d="M125 120v4" stroke="#4f585e" stroke-width="0.8" fill="none" /><path d="M150 120v4" stroke="#4f585e" stroke-width="0.8" fill="none" /><path d="M175 120v4" stroke="#4f585e" stroke-width="0.8" fill="none" /><path d="M200 120v4" stroke="#4f585e" stroke-width="0.8" fill="none" /></g><g transform="translate(360 620) rotate(0) scale(1)"><ellipse cx="35.9" cy="41.4" rx="5.8" ry="3.6" transform="rotate(90 35.9 41.4)" fill="#7d756b" stroke="#4a463f" stroke-width="0.8"/><ellipse cx="72.9" cy="32.0" rx="6.5" ry="5.5" transform="rotate(127 72.9 32.0)" fill="#6b7078" stroke="#4a463f" stroke-width="0.8"/><ellipse cx="34.7" cy="16.1" rx="6.6" ry="3.8" transform="rotate(72 34.7 16.1)" fill="#6b7078" stroke="#4a463f" stroke-width="0.8"/><ellipse cx="93.1" cy="27.1" rx="12.6" ry="10.2" transform="rotate(38 93.1 27.1)" fill="#6b7078" stroke="#4a463f" stroke-width="0.8"/><ellipse cx="102.0" cy="3.7" rx="7.4" ry="5.6" transform="rotate(13 102.0 3.7)" fill="#a39a8c" stroke="#4a463f" stroke-width="0.8"/><ellipse cx="69.2" cy="54.5" rx="6.4" ry="3.7" transform="rotate(3 69.2 54.5)" fill="#7d756b" stroke="#4a463f" stroke-width="0.8"/><ellipse cx="45.1" cy="64.6" rx="5.2" ry="4.0" transform="rotate(11 45.1 64.6)" fill="#6b7078" stroke="#4a463f" stroke-width="0.8"/><ellipse cx="87.7" cy="12.4" rx="9.0" ry="6.2" transform="rotate(177 87.7 12.4)" fill="#8d8173" stroke="#4a463f" stroke-width="0.8"/><ellipse cx="84.6" cy="29.3" rx="7.5" ry="5.0" transform="rotate(0 84.6 29.3)" fill="#8d8173" stroke="#4a463f" stroke-width="0.8"/><ellipse cx="95.1" cy="68.2" rx="9.3" ry="7.9" transform="rotate(38 95.1 68.2)" fill="#6b7078" stroke="#4a463f" stroke-width="0.8"/><ellipse cx="43.4" cy="59.8" rx="9.8" ry="5.7" transform="rotate(38 43.4 59.8)" fill="#8d8173" stroke="#4a463f" stroke-width="0.8"/><ellipse cx="28.4" cy="54.1" rx="7.0" ry="4.4" transform="rotate(13 28.4 54.1)" fill="#6b7078" stroke="#4a463f" stroke-width="0.8"/><ellipse cx="23.0" cy="44.6" rx="4.1" ry="2.7" transform="rotate(82 23.0 44.6)" fill="#5f5c57" stroke="#4a463f" stroke-width="0.8"/><ellipse cx="105.5" cy="33.9" rx="9.2" ry="7.4" transform="rotate(113 105.5 33.9)" fill="#8d8173" stroke="#4a463f" stroke-width="0.8"/><circle cx="34.2" cy="16.0" r="1.4" fill="#c4954a"/><circle cx="79.8" cy="11.1" r="1.4" fill="#c4954a"/><circle cx="60.9" cy="48.1" r="1.2" fill="#c4954a"/><circle cx="53.1" cy="5.5" r="0.8" fill="#c4954a"/><circle cx="12.0" cy="35.9" r="1.1" fill="#c4954a"/><circle cx="81.4" cy="27.4" r="1.2" fill="#c4954a"/><circle cx="99.5" cy="34.4" r="1.3" fill="#c4954a"/><circle cx="102.2" cy="68.4" r="0.9" fill="#c4954a"/><circle cx="52.7" cy="45.7" r="1.4" fill="#c4954a"/><circle cx="8.2" cy="14.9" r="1.7" fill="#c4954a"/><circle cx="82.4" cy="4.8" r="1.2" fill="#c4954a"/><circle cx="27.4" cy="3.3" r="1.1" fill="#c4954a"/><circle cx="58.4" cy="68.1" r="0.9" fill="#c4954a"/><circle cx="15.2" cy="31.5" r="1.1" fill="#c4954a"/><circle cx="80.6" cy="36.5" r="1.7" fill="#c4954a"/><circle cx="64.9" cy="64.7" r="1.3" fill="#c4954a"/><circle cx="39.3" cy="21.8" r="0.8" fill="#c4954a"/><circle cx="65.8" cy="5.2" r="0.9" fill="#c4954a"/><circle cx="34.2" cy="9.6" r="0.9" fill="#c4954a"/><circle cx="49.8" cy="25.7" r="0.8" fill="#c4954a"/><circle cx="103.0" cy="51.6" r="0.9" fill="#c4954a"/><circle cx="106.0" cy="23.9" r="0.9" fill="#c4954a"/><circle cx="52.1" cy="5.4" r="1.7" fill="#c4954a"/><circle cx="103.9" cy="2.1" r="1.3" fill="#c4954a"/><circle cx="1.6" cy="46.4" r="1.2" fill="#c4954a"/><circle cx="1.4" cy="5.1" r="0.9" fill="#c4954a"/><circle cx="12.7" cy="18.0" r="1.2" fill="#c4954a"/><circle cx="36.3" cy="65.4" r="1.5" fill="#c4954a"/><circle cx="50.4" cy="32.4" r="1.3" fill="#c4954a"/><circle cx="57.1" cy="36.0" r="1.1" fill="#c4954a"/><circle cx="9.7" cy="1.6" r="1.8" fill="#c4954a"/><circle cx="12.4" cy="54.6" r="1.5" fill="#c4954a"/><circle cx="53.5" cy="62.7" r="1.2" fill="#c4954a"/><circle cx="15.8" cy="42.8" r="1.3" fill="#c4954a"/><circle cx="82.9" cy="24.0" r="1.7" fill="#c4954a"/><circle cx="54.8" cy="16.9" r="1.2" fill="#c4954a"/><circle cx="27.6" cy="44.4" r="1.6" fill="#c4954a"/><circle cx="83.0" cy="14.0" r="1.0" fill="#c4954a"/><circle cx="24.2" cy="64.5" r="1.0" fill="#c4954a"/><circle cx="14.8" cy="24.6" r="1.7" fill="#c4954a"/><circle cx="4.5" cy="4.5" r="1.8" fill="#c4954a"/><circle cx="90.4" cy="7.9" r="1.3" fill="#c4954a"/></g><g transform="translate(900 680) rotate(0) scale(1)"><ellipse cx="74.1" cy="49.9" rx="7.4" ry="5.3" transform="rotate(129 74.1 49.9)" fill="#7d756b" stroke="#4a463f" stroke-width="0.8"/><ellipse cx="67.4" cy="37.5" rx="6.9" ry="5.5" transform="rotate(157 67.4 37.5)" fill="#7d756b" stroke="#4a463f" stroke-width="0.8"/><ellipse cx="3.3" cy="42.5" rx="9.1" ry="5.9" transform="rotate(3 3.3 42.5)" fill="#5f5c57" stroke="#4a463f" stroke-width="0.8"/><ellipse cx="10.9" cy="27.3" rx="4.2" ry="3.4" transform="rotate(140 10.9 27.3)" fill="#8d8173" stroke="#4a463f" stroke-width="0.8"/><ellipse cx="63.7" cy="59.0" rx="5.0" ry="2.9" transform="rotate(118 63.7 59.0)" fill="#5f5c57" stroke="#4a463f" stroke-width="0.8"/><ellipse cx="64.6" cy="57.5" rx="10.2" ry="6.2" transform="rotate(46 64.6 57.5)" fill="#a39a8c" stroke="#4a463f" stroke-width="0.8"/><ellipse cx="57.1" cy="45.3" rx="8.8" ry="4.9" transform="rotate(49 57.1 45.3)" fill="#8d8173" stroke="#4a463f" stroke-width="0.8"/><ellipse cx="27.7" cy="41.8" rx="8.7" ry="6.4" transform="rotate(71 27.7 41.8)" fill="#8d8173" stroke="#4a463f" stroke-width="0.8"/><ellipse cx="63.4" cy="54.4" rx="4.8" ry="4.0" transform="rotate(23 63.4 54.4)" fill="#a39a8c" stroke="#4a463f" stroke-width="0.8"/><circle cx="36.3" cy="37.5" r="1.7" fill="#c4954a"/><circle cx="30.1" cy="34.1" r="1.7" fill="#c4954a"/><circle cx="63.7" cy="56.7" r="1.3" fill="#c4954a"/><circle cx="52.1" cy="12.3" r="1.5" fill="#c4954a"/><circle cx="65.5" cy="38.5" r="1.5" fill="#c4954a"/><circle cx="17.1" cy="54.0" r="1.8" fill="#c4954a"/><circle cx="78.2" cy="32.2" r="1.6" fill="#c4954a"/><circle cx="25.6" cy="54.6" r="1.7" fill="#c4954a"/><circle cx="27.9" cy="5.0" r="1.2" fill="#c4954a"/><circle cx="44.0" cy="46.1" r="1.3" fill="#c4954a"/><circle cx="2.3" cy="48.5" r="0.9" fill="#c4954a"/><circle cx="64.0" cy="10.4" r="1.1" fill="#c4954a"/><circle cx="63.0" cy="8.4" r="0.9" fill="#c4954a"/><circle cx="41.3" cy="43.4" r="1.6" fill="#c4954a"/><circle cx="55.1" cy="56.7" r="1.3" fill="#c4954a"/><circle cx="75.9" cy="5.2" r="1.0" fill="#c4954a"/><circle cx="42.1" cy="17.4" r="1.5" fill="#c4954a"/><circle cx="51.1" cy="31.4" r="1.6" fill="#c4954a"/><circle cx="44.8" cy="18.7" r="1.2" fill="#c4954a"/><circle cx="67.6" cy="54.0" r="1.0" fill="#c4954a"/><circle cx="68.1" cy="58.1" r="1.3" fill="#c4954a"/><circle cx="45.8" cy="12.1" r="1.3" fill="#c4954a"/><circle cx="40.3" cy="36.3" r="0.8" fill="#c4954a"/><circle cx="77.6" cy="31.0" r="1.2" fill="#c4954a"/><circle cx="64.1" cy="33.8" r="1.3" fill="#c4954a"/><circle cx="55.3" cy="4.0" r="1.3" fill="#c4954a"/><circle cx="33.1" cy="57.4" r="1.7" fill="#c4954a"/></g><g transform="translate(870 150) rotate(0) scale(1)"><ellipse cx="18.8" cy="23.7" rx="5.1" ry="3.5" transform="rotate(94 18.8 23.7)" fill="#a39a8c" stroke="#4a463f" stroke-width="0.8"/><ellipse cx="7.6" cy="21.0" rx="4.3" ry="2.7" transform="rotate(6 7.6 21.0)" fill="#6b7078" stroke="#4a463f" stroke-width="0.8"/><ellipse cx="10.9" cy="0.6" rx="6.6" ry="5.0" transform="rotate(112 10.9 0.6)" fill="#8d8173" stroke="#4a463f" stroke-width="0.8"/><ellipse cx="7.3" cy="36.5" rx="5.1" ry="3.6" transform="rotate(129 7.3 36.5)" fill="#7d756b" stroke="#4a463f" stroke-width="0.8"/><ellipse cx="49.1" cy="43.9" rx="4.2" ry="3.1" transform="rotate(111 49.1 43.9)" fill="#5f5c57" stroke="#4a463f" stroke-width="0.8"/><ellipse cx="37.7" cy="43.2" rx="8.8" ry="5.4" transform="rotate(153 37.7 43.2)" fill="#8d8173" stroke="#4a463f" stroke-width="0.8"/><ellipse cx="42.8" cy="42.8" rx="6.1" ry="4.7" transform="rotate(162 42.8 42.8)" fill="#7d756b" stroke="#4a463f" stroke-width="0.8"/><circle cx="22.1" cy="15.7" r="1.7" fill="#c4954a"/><circle cx="15.3" cy="49.9" r="1.7" fill="#c4954a"/><circle cx="9.4" cy="12.0" r="1.5" fill="#c4954a"/><circle cx="18.2" cy="4.9" r="1.6" fill="#c4954a"/><circle cx="29.5" cy="39.5" r="0.9" fill="#c4954a"/><circle cx="28.2" cy="34.3" r="0.8" fill="#c4954a"/><circle cx="14.1" cy="34.1" r="1.7" fill="#c4954a"/><circle cx="67.8" cy="5.8" r="1.3" fill="#c4954a"/><circle cx="53.1" cy="25.1" r="1.5" fill="#c4954a"/><circle cx="13.2" cy="3.5" r="0.9" fill="#c4954a"/><circle cx="2.6" cy="27.6" r="1.3" fill="#c4954a"/><circle cx="39.8" cy="7.3" r="1.0" fill="#c4954a"/><circle cx="14.3" cy="42.0" r="1.8" fill="#c4954a"/><circle cx="64.9" cy="4.8" r="0.9" fill="#c4954a"/><circle cx="66.6" cy="23.1" r="1.6" fill="#c4954a"/><circle cx="22.9" cy="23.3" r="1.3" fill="#c4954a"/><circle cx="30.1" cy="30.0" r="0.8" fill="#c4954a"/><circle cx="49.1" cy="42.2" r="1.0" fill="#c4954a"/><circle cx="31.8" cy="37.0" r="1.2" fill="#c4954a"/><circle cx="13.7" cy="8.3" r="1.3" fill="#c4954a"/><circle cx="1.1" cy="44.7" r="1.6" fill="#c4954a"/></g><g transform="translate(24 190) rotate(0) scale(0.8)"><path d="M0 10q0-10 10-10h60q10 0 10 10v70q0 10-10 10h-60q-10 0-10-10z" stroke="#8a7f70" stroke-width="1.2" fill="#e9e1cf" /><rect x="12" y="26" width="56" height="26" rx="0" stroke="#7c1d2f" fill="none" stroke-width="0.9"/><text x="40" y="44" font-size="11" font-family="monospace" text-anchor="middle" fill="#7c1d2f">OPC 53</text><text x="40" y="72" font-size="9" font-family="monospace" text-anchor="middle" fill="#6f6a60">50 kg</text></g></g></svg>